<svg width="300" height="450" xmlns="http://www.w3.org/2000/svg">
    <!-- Background -->
    <rect width="300" height="450" fill="#006633"/>
    
    <!-- Pattern elements -->
    <circle cx="202" cy="201" r="64" fill="#FF9E00" opacity="0.19616414561403583"/>
    <circle cx="184" cy="31" r="47" fill="#FF9E00" opacity="0.22656196138699056"/>
    <circle cx="294" cy="41" r="44" fill="#FF9E00" opacity="0.22160765074733696"/>
    <circle cx="109" cy="76" r="90" fill="#FF9E00" opacity="0.19581017829667569"/>
    <circle cx="188" cy="233" r="32" fill="#FF9E00" opacity="0.2400116421220941"/>
    <circle cx="104" cy="44" r="25" fill="#FF9E00" opacity="0.12687096387135308"/>
    <circle cx="278" cy="434" r="71" fill="#FF9E00" opacity="0.17742741990500144"/>
    <circle cx="71" cy="251" r="28" fill="#FF9E00" opacity="0.22095086821185816"/>
    <circle cx="195" cy="370" r="22" fill="#FF9E00" opacity="0.21389556868268297"/>
    <circle cx="233" cy="34" r="59" fill="#FF9E00" opacity="0.1734852985419093"/>
    
    <!-- Gradient overlay -->
    <rect width="300" height="450" fill="url(#grad)" opacity="0.7"/>
    
    <!-- Definitions -->
    <defs>
        <linearGradient id="grad" x1="0%" y1="0%" x2="0%" y2="100%">
            <stop offset="0%" style="stop-color:#FF9E00;stop-opacity:0.3" />
            <stop offset="100%" style="stop-color:#006633;stop-opacity:0.9" />
        </linearGradient>
    </defs>
    
    <!-- Movie title -->
    <text x="150" y="220" font-family="Arial" font-size="32" font-weight="bold" fill="white" text-anchor="middle">Forrest Gump</text>
    
    <!-- Year -->
    <text x="150" y="280" font-family="Arial" font-size="20" fill="#FF9E00" text-anchor="middle">1994</text>
    
    <!-- Decorative elements -->
    <rect x="50" y="320" width="200" height="2" fill="#FF9E00" opacity="0.8"/>
    <rect x="75" y="330" width="150" height="1" fill="#FF9E00" opacity="0.6"/>
    
    <!-- Rating stars placeholder -->
    <g transform="translate(125, 360)">
        <path d="M10,0 L13,6 L20,7 L15,12 L16,20 L10,16 L4,20 L5,12 L0,7 L7,6 Z" fill="#FF9E00"/>
    </g>
    <g transform="translate(150, 360)">
        <path d="M10,0 L13,6 L20,7 L15,12 L16,20 L10,16 L4,20 L5,12 L0,7 L7,6 Z" fill="#FF9E00"/>
    </g>
    <g transform="translate(175, 360)">
        <path d="M10,0 L13,6 L20,7 L15,12 L16,20 L10,16 L4,20 L5,12 L0,7 L7,6 Z" fill="#FF9E00"/>
    </g>
</svg>