<svg width="300" height="450" xmlns="http://www.w3.org/2000/svg">
    <!-- Background -->
    <rect width="300" height="450" fill="#0066CC"/>
    
    <!-- Pattern elements -->
    <circle cx="208" cy="204" r="28" fill="#FF2D55" opacity="0.1662168181591444"/>
    <circle cx="266" cy="162" r="89" fill="#FF2D55" opacity="0.2739381925668978"/>
    <circle cx="240" cy="73" r="80" fill="#FF2D55" opacity="0.14470766191234952"/>
    <circle cx="12" cy="377" r="26" fill="#FF2D55" opacity="0.29772953976136696"/>
    <circle cx="57" cy="443" r="76" fill="#FF2D55" opacity="0.22462242313770306"/>
    <circle cx="47" cy="152" r="52" fill="#FF2D55" opacity="0.10975107099708792"/>
    <circle cx="121" cy="223" r="87" fill="#FF2D55" opacity="0.29602000246211596"/>
    <circle cx="233" cy="234" r="51" fill="#FF2D55" opacity="0.17460357027877352"/>
    <circle cx="292" cy="188" r="35" fill="#FF2D55" opacity="0.18289257203644474"/>
    <circle cx="73" cy="65" r="55" fill="#FF2D55" opacity="0.18609304157817083"/>
    
    <!-- Gradient overlay -->
    <rect width="300" height="450" fill="url(#grad)" opacity="0.7"/>
    
    <!-- Definitions -->
    <defs>
        <linearGradient id="grad" x1="0%" y1="0%" x2="0%" y2="100%">
            <stop offset="0%" style="stop-color:#FF2D55;stop-opacity:0.3" />
            <stop offset="100%" style="stop-color:#0066CC;stop-opacity:0.9" />
        </linearGradient>
    </defs>
    
    <!-- Movie title -->
    <text x="150" y="220" font-family="Arial" font-size="32" font-weight="bold" fill="white" text-anchor="middle">Inception</text>
    
    <!-- Year -->
    <text x="150" y="280" font-family="Arial" font-size="20" fill="#FF2D55" text-anchor="middle">2010</text>
    
    <!-- Decorative elements -->
    <rect x="50" y="320" width="200" height="2" fill="#FF2D55" opacity="0.8"/>
    <rect x="75" y="330" width="150" height="1" fill="#FF2D55" opacity="0.6"/>
    
    <!-- Rating stars placeholder -->
    <g transform="translate(125, 360)">
        <path d="M10,0 L13,6 L20,7 L15,12 L16,20 L10,16 L4,20 L5,12 L0,7 L7,6 Z" fill="#FF2D55"/>
    </g>
    <g transform="translate(150, 360)">
        <path d="M10,0 L13,6 L20,7 L15,12 L16,20 L10,16 L4,20 L5,12 L0,7 L7,6 Z" fill="#FF2D55"/>
    </g>
    <g transform="translate(175, 360)">
        <path d="M10,0 L13,6 L20,7 L15,12 L16,20 L10,16 L4,20 L5,12 L0,7 L7,6 Z" fill="#FF2D55"/>
    </g>
</svg>