<svg width="300" height="450" xmlns="http://www.w3.org/2000/svg">
    <!-- Background -->
    <rect width="300" height="450" fill="#000033"/>
    
    <!-- Pattern elements -->
    <circle cx="271" cy="19" r="90" fill="#FFD166" opacity="0.26373765967734975"/>
    <circle cx="217" cy="346" r="77" fill="#FFD166" opacity="0.1829760113527665"/>
    <circle cx="265" cy="155" r="46" fill="#FFD166" opacity="0.23764995222809565"/>
    <circle cx="205" cy="445" r="79" fill="#FFD166" opacity="0.16890717863681048"/>
    <circle cx="102" cy="355" r="70" fill="#FFD166" opacity="0.28887941351933266"/>
    <circle cx="6" cy="21" r="98" fill="#FFD166" opacity="0.22925189873966056"/>
    <circle cx="10" cy="143" r="54" fill="#FFD166" opacity="0.1557820822474192"/>
    <circle cx="58" cy="69" r="35" fill="#FFD166" opacity="0.2178565277929772"/>
    <circle cx="233" cy="239" r="72" fill="#FFD166" opacity="0.18632194937609792"/>
    <circle cx="139" cy="26" r="98" fill="#FFD166" opacity="0.15187772799662275"/>
    
    <!-- Gradient overlay -->
    <rect width="300" height="450" fill="url(#grad)" opacity="0.7"/>
    
    <!-- Definitions -->
    <defs>
        <linearGradient id="grad" x1="0%" y1="0%" x2="0%" y2="100%">
            <stop offset="0%" style="stop-color:#FFD166;stop-opacity:0.3" />
            <stop offset="100%" style="stop-color:#000033;stop-opacity:0.9" />
        </linearGradient>
    </defs>
    
    <!-- Movie title -->
    <text x="150" y="220" font-family="Arial" font-size="32" font-weight="bold" fill="white" text-anchor="middle">Interstellar</text>
    
    <!-- Year -->
    <text x="150" y="280" font-family="Arial" font-size="20" fill="#FFD166" text-anchor="middle">2014</text>
    
    <!-- Decorative elements -->
    <rect x="50" y="320" width="200" height="2" fill="#FFD166" opacity="0.8"/>
    <rect x="75" y="330" width="150" height="1" fill="#FFD166" opacity="0.6"/>
    
    <!-- Rating stars placeholder -->
    <g transform="translate(125, 360)">
        <path d="M10,0 L13,6 L20,7 L15,12 L16,20 L10,16 L4,20 L5,12 L0,7 L7,6 Z" fill="#FFD166"/>
    </g>
    <g transform="translate(150, 360)">
        <path d="M10,0 L13,6 L20,7 L15,12 L16,20 L10,16 L4,20 L5,12 L0,7 L7,6 Z" fill="#FFD166"/>
    </g>
    <g transform="translate(175, 360)">
        <path d="M10,0 L13,6 L20,7 L15,12 L16,20 L10,16 L4,20 L5,12 L0,7 L7,6 Z" fill="#FFD166"/>
    </g>
</svg>