<svg width="300" height="450" xmlns="http://www.w3.org/2000/svg">
    <!-- Background -->
    <rect width="300" height="450" fill="#FF9900"/>
    
    <!-- Pattern elements -->
    <circle cx="106" cy="351" r="28" fill="#000000" opacity="0.25903418211851614"/>
    <circle cx="62" cy="405" r="25" fill="#000000" opacity="0.10474584144487431"/>
    <circle cx="137" cy="172" r="79" fill="#000000" opacity="0.1444632815795727"/>
    <circle cx="53" cy="219" r="50" fill="#000000" opacity="0.13578457502919045"/>
    <circle cx="10" cy="443" r="58" fill="#000000" opacity="0.14625385058216228"/>
    <circle cx="86" cy="169" r="60" fill="#000000" opacity="0.16628507492987327"/>
    <circle cx="160" cy="31" r="97" fill="#000000" opacity="0.12001746408378422"/>
    <circle cx="123" cy="222" r="69" fill="#000000" opacity="0.2564122206452515"/>
    <circle cx="22" cy="244" r="29" fill="#000000" opacity="0.1545019122392617"/>
    <circle cx="216" cy="415" r="61" fill="#000000" opacity="0.11881867008545043"/>
    
    <!-- Gradient overlay -->
    <rect width="300" height="450" fill="url(#grad)" opacity="0.7"/>
    
    <!-- Definitions -->
    <defs>
        <linearGradient id="grad" x1="0%" y1="0%" x2="0%" y2="100%">
            <stop offset="0%" style="stop-color:#000000;stop-opacity:0.3" />
            <stop offset="100%" style="stop-color:#FF9900;stop-opacity:0.9" />
        </linearGradient>
    </defs>
    
    <!-- Movie title -->
    <text x="150" y="220" font-family="Arial" font-size="32" font-weight="bold" fill="white" text-anchor="middle">Pulp Fiction</text>
    
    <!-- Year -->
    <text x="150" y="280" font-family="Arial" font-size="20" fill="#000000" text-anchor="middle">1994</text>
    
    <!-- Decorative elements -->
    <rect x="50" y="320" width="200" height="2" fill="#000000" opacity="0.8"/>
    <rect x="75" y="330" width="150" height="1" fill="#000000" opacity="0.6"/>
    
    <!-- Rating stars placeholder -->
    <g transform="translate(125, 360)">
        <path d="M10,0 L13,6 L20,7 L15,12 L16,20 L10,16 L4,20 L5,12 L0,7 L7,6 Z" fill="#000000"/>
    </g>
    <g transform="translate(150, 360)">
        <path d="M10,0 L13,6 L20,7 L15,12 L16,20 L10,16 L4,20 L5,12 L0,7 L7,6 Z" fill="#000000"/>
    </g>
    <g transform="translate(175, 360)">
        <path d="M10,0 L13,6 L20,7 L15,12 L16,20 L10,16 L4,20 L5,12 L0,7 L7,6 Z" fill="#000000"/>
    </g>
</svg>