<svg width="300" height="450" xmlns="http://www.w3.org/2000/svg">
    <!-- Background -->
    <rect width="300" height="450" fill="#1A1A1A"/>
    
    <!-- Pattern elements -->
    <circle cx="102" cy="212" r="89" fill="#4B0082" opacity="0.1965977148505233"/>
    <circle cx="187" cy="407" r="38" fill="#4B0082" opacity="0.2620936569658736"/>
    <circle cx="253" cy="353" r="74" fill="#4B0082" opacity="0.2900515344410224"/>
    <circle cx="36" cy="440" r="44" fill="#4B0082" opacity="0.19402825711156402"/>
    <circle cx="48" cy="202" r="30" fill="#4B0082" opacity="0.23228991987128036"/>
    <circle cx="99" cy="194" r="69" fill="#4B0082" opacity="0.1884755823530071"/>
    <circle cx="119" cy="262" r="67" fill="#4B0082" opacity="0.18871885642539704"/>
    <circle cx="195" cy="187" r="38" fill="#4B0082" opacity="0.17171923633104313"/>
    <circle cx="15" cy="103" r="94" fill="#4B0082" opacity="0.14882897375354906"/>
    <circle cx="159" cy="275" r="99" fill="#4B0082" opacity="0.27415458305122575"/>
    
    <!-- Gradient overlay -->
    <rect width="300" height="450" fill="url(#grad)" opacity="0.7"/>
    
    <!-- Definitions -->
    <defs>
        <linearGradient id="grad" x1="0%" y1="0%" x2="0%" y2="100%">
            <stop offset="0%" style="stop-color:#4B0082;stop-opacity:0.3" />
            <stop offset="100%" style="stop-color:#1A1A1A;stop-opacity:0.9" />
        </linearGradient>
    </defs>
    
    <!-- Movie title -->
    <text x="150" y="200" font-family="Arial" font-size="28" font-weight="bold" fill="white" text-anchor="middle">The</text>
    <text x="150" y="240" font-family="Arial" font-size="28" font-weight="bold" fill="white" text-anchor="middle">Dark Knight</text>
    
    <!-- Year -->
    <text x="150" y="280" font-family="Arial" font-size="20" fill="#4B0082" text-anchor="middle">2008</text>
    
    <!-- Decorative elements -->
    <rect x="50" y="320" width="200" height="2" fill="#4B0082" opacity="0.8"/>
    <rect x="75" y="330" width="150" height="1" fill="#4B0082" opacity="0.6"/>
    
    <!-- Rating stars placeholder -->
    <g transform="translate(125, 360)">
        <path d="M10,0 L13,6 L20,7 L15,12 L16,20 L10,16 L4,20 L5,12 L0,7 L7,6 Z" fill="#4B0082"/>
    </g>
    <g transform="translate(150, 360)">
        <path d="M10,0 L13,6 L20,7 L15,12 L16,20 L10,16 L4,20 L5,12 L0,7 L7,6 Z" fill="#4B0082"/>
    </g>
    <g transform="translate(175, 360)">
        <path d="M10,0 L13,6 L20,7 L15,12 L16,20 L10,16 L4,20 L5,12 L0,7 L7,6 Z" fill="#4B0082"/>
    </g>
</svg>