<svg width="300" height="450" xmlns="http://www.w3.org/2000/svg">
    <!-- Background -->
    <rect width="300" height="450" fill="#003300"/>
    
    <!-- Pattern elements -->
    <circle cx="74" cy="260" r="92" fill="#00FF00" opacity="0.18109500638061093"/>
    <circle cx="25" cy="393" r="28" fill="#00FF00" opacity="0.26479775455955223"/>
    <circle cx="108" cy="214" r="91" fill="#00FF00" opacity="0.2124394938786513"/>
    <circle cx="259" cy="416" r="52" fill="#00FF00" opacity="0.2802422211036206"/>
    <circle cx="300" cy="343" r="72" fill="#00FF00" opacity="0.1217749633637662"/>
    <circle cx="266" cy="127" r="60" fill="#00FF00" opacity="0.10018504440001337"/>
    <circle cx="163" cy="322" r="38" fill="#00FF00" opacity="0.17722056330958635"/>
    <circle cx="254" cy="141" r="66" fill="#00FF00" opacity="0.19060964553344228"/>
    <circle cx="286" cy="221" r="74" fill="#00FF00" opacity="0.26313293524190984"/>
    <circle cx="228" cy="383" r="67" fill="#00FF00" opacity="0.28510224459786315"/>
    
    <!-- Gradient overlay -->
    <rect width="300" height="450" fill="url(#grad)" opacity="0.7"/>
    
    <!-- Definitions -->
    <defs>
        <linearGradient id="grad" x1="0%" y1="0%" x2="0%" y2="100%">
            <stop offset="0%" style="stop-color:#00FF00;stop-opacity:0.3" />
            <stop offset="100%" style="stop-color:#003300;stop-opacity:0.9" />
        </linearGradient>
    </defs>
    
    <!-- Movie title -->
    <text x="150" y="220" font-family="Arial" font-size="32" font-weight="bold" fill="white" text-anchor="middle">The Matrix</text>
    
    <!-- Year -->
    <text x="150" y="280" font-family="Arial" font-size="20" fill="#00FF00" text-anchor="middle">1999</text>
    
    <!-- Decorative elements -->
    <rect x="50" y="320" width="200" height="2" fill="#00FF00" opacity="0.8"/>
    <rect x="75" y="330" width="150" height="1" fill="#00FF00" opacity="0.6"/>
    
    <!-- Rating stars placeholder -->
    <g transform="translate(125, 360)">
        <path d="M10,0 L13,6 L20,7 L15,12 L16,20 L10,16 L4,20 L5,12 L0,7 L7,6 Z" fill="#00FF00"/>
    </g>
    <g transform="translate(150, 360)">
        <path d="M10,0 L13,6 L20,7 L15,12 L16,20 L10,16 L4,20 L5,12 L0,7 L7,6 Z" fill="#00FF00"/>
    </g>
    <g transform="translate(175, 360)">
        <path d="M10,0 L13,6 L20,7 L15,12 L16,20 L10,16 L4,20 L5,12 L0,7 L7,6 Z" fill="#00FF00"/>
    </g>
</svg>